<svg x="0px" xmlns="http://www.w3.org/2000/svg" id="el_LCVTqJZzS" y="0px" enable-background="new 0 0 100 100" xmlns:xlink="http://www.w3.org/1999/xlink" viewBox="0 0 100 100" xml:space="preserve" version="1.1">
 <style>@-webkit-keyframes kf_el_QeechGQ-Vx_an_hgPbV6bEy{33.33%{-webkit-transform: translate(50px, 50px) scale(1, 1) translate(-50px, -50px);transform: translate(50px, 50px) scale(1, 1) translate(-50px, -50px);}66.67%{-webkit-transform: translate(50px, 50px) scale(1, 0) translate(-50px, -50px);transform: translate(50px, 50px) scale(1, 0) translate(-50px, -50px);}100%{-webkit-transform: translate(50px, 50px) scale(1, 1) translate(-50px, -50px);transform: translate(50px, 50px) scale(1, 1) translate(-50px, -50px);}0%{-webkit-transform: translate(50px, 50px) scale(1, 1) translate(-50px, -50px);transform: translate(50px, 50px) scale(1, 1) translate(-50px, -50px);}}@keyframes kf_el_QeechGQ-Vx_an_hgPbV6bEy{33.33%{-webkit-transform: translate(50px, 50px) scale(1, 1) translate(-50px, -50px);transform: translate(50px, 50px) scale(1, 1) translate(-50px, -50px);}66.67%{-webkit-transform: translate(50px, 50px) scale(1, 0) translate(-50px, -50px);transform: translate(50px, 50px) scale(1, 0) translate(-50px, -50px);}100%{-webkit-transform: translate(50px, 50px) scale(1, 1) translate(-50px, -50px);transform: translate(50px, 50px) scale(1, 1) translate(-50px, -50px);}0%{-webkit-transform: translate(50px, 50px) scale(1, 1) translate(-50px, -50px);transform: translate(50px, 50px) scale(1, 1) translate(-50px, -50px);}}@-webkit-keyframes kf_el_QeechGQ-Vx_an_TtqUi0TId{0%{-webkit-transform: translate(50px, 50px) rotate(16245deg) translate(-50px, -50px);transform: translate(50px, 50px) rotate(16245deg) translate(-50px, -50px);}100%{-webkit-transform: translate(50px, 50px) rotate(16245deg) translate(-50px, -50px);transform: translate(50px, 50px) rotate(16245deg) translate(-50px, -50px);}}@keyframes kf_el_QeechGQ-Vx_an_TtqUi0TId{0%{-webkit-transform: translate(50px, 50px) rotate(16245deg) translate(-50px, -50px);transform: translate(50px, 50px) rotate(16245deg) translate(-50px, -50px);}100%{-webkit-transform: translate(50px, 50px) rotate(16245deg) translate(-50px, -50px);transform: translate(50px, 50px) rotate(16245deg) translate(-50px, -50px);}}@-webkit-keyframes kf_el_d96Yos5TgG_an_yu3xQHSN3{16.67%{-webkit-transform: translate(50px, 50px) scale(1, 1) translate(-50px, -50px);transform: translate(50px, 50px) scale(1, 1) translate(-50px, -50px);}50%{-webkit-transform: translate(50px, 50px) scale(0, 1) translate(-50px, -50px);transform: translate(50px, 50px) scale(0, 1) translate(-50px, -50px);}83.33%{-webkit-transform: translate(50px, 50px) scale(1, 1) translate(-50px, -50px);transform: translate(50px, 50px) scale(1, 1) translate(-50px, -50px);}0%{-webkit-transform: translate(50px, 50px) scale(1, 1) translate(-50px, -50px);transform: translate(50px, 50px) scale(1, 1) translate(-50px, -50px);}100%{-webkit-transform: translate(50px, 50px) scale(1, 1) translate(-50px, -50px);transform: translate(50px, 50px) scale(1, 1) translate(-50px, -50px);}}@keyframes kf_el_d96Yos5TgG_an_yu3xQHSN3{16.67%{-webkit-transform: translate(50px, 50px) scale(1, 1) translate(-50px, -50px);transform: translate(50px, 50px) scale(1, 1) translate(-50px, -50px);}50%{-webkit-transform: translate(50px, 50px) scale(0, 1) translate(-50px, -50px);transform: translate(50px, 50px) scale(0, 1) translate(-50px, -50px);}83.33%{-webkit-transform: translate(50px, 50px) scale(1, 1) translate(-50px, -50px);transform: translate(50px, 50px) scale(1, 1) translate(-50px, -50px);}0%{-webkit-transform: translate(50px, 50px) scale(1, 1) translate(-50px, -50px);transform: translate(50px, 50px) scale(1, 1) translate(-50px, -50px);}100%{-webkit-transform: translate(50px, 50px) scale(1, 1) translate(-50px, -50px);transform: translate(50px, 50px) scale(1, 1) translate(-50px, -50px);}}@-webkit-keyframes kf_el_aCoVviGfCp_an_hMLNQtfE7{0%{-webkit-transform: translate(50px, 50px) scale(1, 1) translate(-50px, -50px);transform: translate(50px, 50px) scale(1, 1) translate(-50px, -50px);}33.33%{-webkit-transform: translate(50px, 50px) scale(1, 0) translate(-50px, -50px);transform: translate(50px, 50px) scale(1, 0) translate(-50px, -50px);}66.67%{-webkit-transform: translate(50px, 50px) scale(1, 1) translate(-50px, -50px);transform: translate(50px, 50px) scale(1, 1) translate(-50px, -50px);}100%{-webkit-transform: translate(50px, 50px) scale(1, 1) translate(-50px, -50px);transform: translate(50px, 50px) scale(1, 1) translate(-50px, -50px);}}@keyframes kf_el_aCoVviGfCp_an_hMLNQtfE7{0%{-webkit-transform: translate(50px, 50px) scale(1, 1) translate(-50px, -50px);transform: translate(50px, 50px) scale(1, 1) translate(-50px, -50px);}33.33%{-webkit-transform: translate(50px, 50px) scale(1, 0) translate(-50px, -50px);transform: translate(50px, 50px) scale(1, 0) translate(-50px, -50px);}66.67%{-webkit-transform: translate(50px, 50px) scale(1, 1) translate(-50px, -50px);transform: translate(50px, 50px) scale(1, 1) translate(-50px, -50px);}100%{-webkit-transform: translate(50px, 50px) scale(1, 1) translate(-50px, -50px);transform: translate(50px, 50px) scale(1, 1) translate(-50px, -50px);}}#el_LCVTqJZzS *{-webkit-animation-duration: 3s;animation-duration: 3s;-webkit-animation-iteration-count: infinite;animation-iteration-count: infinite;-webkit-animation-timing-function: cubic-bezier(0, 0, 1, 1);animation-timing-function: cubic-bezier(0, 0, 1, 1);}#el_k-8ch8sWdI{opacity: 0.5;}#el_U4JNVWWyKr{fill: #343434;}#el__jGJvXF0bi{fill: #FFFFFF;}#el_cw2KOw0BoC{fill: #FFFFFF;}#el_a5e1O5l8yD{fill: #D9D9D9;}#el_B_sBN1Haas{fill: #FFFFFF;}#el_I4YP2tOveD{fill: #FFFFFF;}#el_QeechGQ-Vx{opacity: 0.75;}#el_4wjvWwNeOk{fill: #FFFFFF;}#el_d96Yos5TgG{opacity: 0.75;}#el_fvJZrC5TL6{fill: #FFFFFF;}#el_aCoVviGfCp{opacity: 0.75;}#el_xhP9ITeTnR{fill: #FFFFFF;}#el_aCoVviGfCp_an_hMLNQtfE7{-webkit-animation-fill-mode: forwards;animation-fill-mode: forwards;-webkit-transform: translate(50px, 50px) scale(1, 1) translate(-50px, -50px);transform: translate(50px, 50px) scale(1, 1) translate(-50px, -50px);-webkit-animation-name: kf_el_aCoVviGfCp_an_hMLNQtfE7;animation-name: kf_el_aCoVviGfCp_an_hMLNQtfE7;-webkit-animation-timing-function: cubic-bezier(0, 0, 1, 1);animation-timing-function: cubic-bezier(0, 0, 1, 1);}#el_d96Yos5TgG_an_yu3xQHSN3{-webkit-animation-fill-mode: forwards;animation-fill-mode: forwards;-webkit-transform: translate(50px, 50px) scale(1, 1) translate(-50px, -50px);transform: translate(50px, 50px) scale(1, 1) translate(-50px, -50px);-webkit-animation-name: kf_el_d96Yos5TgG_an_yu3xQHSN3;animation-name: kf_el_d96Yos5TgG_an_yu3xQHSN3;-webkit-animation-timing-function: cubic-bezier(0, 0, 1, 1);animation-timing-function: cubic-bezier(0, 0, 1, 1);}#el_QeechGQ-Vx_an_TtqUi0TId{-webkit-animation-fill-mode: forwards;animation-fill-mode: forwards;-webkit-transform: translate(50px, 50px) rotate(16245deg) translate(-50px, -50px);transform: translate(50px, 50px) rotate(16245deg) translate(-50px, -50px);-webkit-animation-name: kf_el_QeechGQ-Vx_an_TtqUi0TId;animation-name: kf_el_QeechGQ-Vx_an_TtqUi0TId;-webkit-animation-timing-function: cubic-bezier(0, 0, 1, 1);animation-timing-function: cubic-bezier(0, 0, 1, 1);}#el_QeechGQ-Vx_an_hgPbV6bEy{-webkit-animation-fill-mode: forwards;animation-fill-mode: forwards;-webkit-transform: translate(50px, 50px) scale(1, 1) translate(-50px, -50px);transform: translate(50px, 50px) scale(1, 1) translate(-50px, -50px);-webkit-animation-name: kf_el_QeechGQ-Vx_an_hgPbV6bEy;animation-name: kf_el_QeechGQ-Vx_an_hgPbV6bEy;-webkit-animation-timing-function: cubic-bezier(0, 0, 1, 1);animation-timing-function: cubic-bezier(0, 0, 1, 1);}</style>
 <g id="el_k-8ch8sWdI">
  <circle cx="50" id="el_U4JNVWWyKr" r="49" cy="50"/>
  <path id="el__jGJvXF0bi" d="M50,2c26.467,0,48,21.533,48,48S76.467,98,50,98S2,76.467,2,50S23.533,2,50,2 M50,0C22.386,0,0,22.386,0,50&#xa;&#x9;&#x9;s22.386,50,50,50s50-22.386,50-50S77.614,0,50,0L50,0z"/>
 </g>
 <path id="el_cw2KOw0BoC" d="M40.08,41.285c0,1.8-0.67,3.3-2.01,4.5c-1.32,1.2-2.96,1.8-4.92,1.8&#xa;&#x9;c-1.54,0-2.93-0.46-4.17-1.38c-1.26-0.96-2.11-2.21-2.55-3.75l2.52-1.05c0.32,1.14,0.845,2.015,1.575,2.625&#xa;&#x9;c0.73,0.61,1.605,0.915,2.625,0.915c1.12,0,2.09-0.35,2.91-1.05c0.8-0.72,1.2-1.59,1.2-2.61s-0.42-1.88-1.26-2.58&#xa;&#x9;c-0.82-0.7-1.81-1.05-2.97-1.05h-1.77v-2.58h1.56c1.1,0,2-0.305,2.7-0.915c0.7-0.61,1.05-1.405,1.05-2.385&#xa;&#x9;c0-0.9-0.33-1.63-0.99-2.19c-0.66-0.56-1.53-0.84-2.61-0.84c-1.74,0-2.93,0.89-3.57,2.67l-2.55-1.08c0.46-1.26,1.23-2.28,2.31-3.06&#xa;&#x9;c1.08-0.78,2.35-1.17,3.81-1.17c1.819,0,3.35,0.54,4.59,1.62c1.22,1.04,1.83,2.39,1.83,4.05c0,1.98-0.92,3.45-2.76,4.41v0.12&#xa;&#x9;c1.08,0.46,1.925,1.13,2.535,2.01C39.775,39.195,40.08,40.185,40.08,41.285z M50.129,34.085c1.66,0,3.141,0.66,4.44,1.98&#xa;&#x9;c1.319,1.3,1.979,2.85,1.979,4.65c0,1.84-0.699,3.45-2.1,4.83c-1.42,1.36-3.061,2.04-4.92,2.04c-1.98,0-3.65-0.68-5.01-2.04&#xa;&#x9;c-1.36-1.36-2.04-2.97-2.04-4.83c0-1.66,0.669-3.55,2.01-5.67l5.97-8.94l2.221,1.53l-5.07,7.02l0.06,0.06&#xa;&#x9;C48.29,34.295,49.11,34.085,50.129,34.085z M45.27,40.745c0,1.18,0.41,2.18,1.23,3c0.82,0.8,1.83,1.2,3.03,1.2s2.199-0.4,3-1.2&#xa;&#x9;c0.82-0.82,1.23-1.82,1.23-3c0-1.16-0.42-2.15-1.26-2.97c-0.82-0.82-1.811-1.23-2.971-1.23c-1.14,0-2.14,0.41-3,1.23&#xa;&#x9;C45.69,38.595,45.27,39.585,45.27,40.745z M59.069,36.845c0-3.12,0.771-5.69,2.311-7.71c1.54-2.02,3.52-3.03,5.939-3.03&#xa;&#x9;s4.4,1.02,5.94,3.06c1.54,2.02,2.311,4.58,2.311,7.68c0,3.08-0.771,5.65-2.311,7.71c-1.54,2.02-3.521,3.03-5.94,3.03&#xa;&#x9;s-4.399-1.01-5.939-3.03C59.839,42.495,59.069,39.925,59.069,36.845z M72.75,36.845c0-2.36-0.5-4.3-1.5-5.82&#xa;&#x9;c-0.98-1.52-2.29-2.28-3.931-2.28c-1.64,0-2.949,0.76-3.93,2.28c-1,1.52-1.5,3.46-1.5,5.82s0.5,4.31,1.5,5.85&#xa;&#x9;c0.98,1.5,2.29,2.25,3.93,2.25c1.641,0,2.95-0.76,3.931-2.28C72.25,41.125,72.75,39.185,72.75,36.845z"/>
 <path id="el_a5e1O5l8yD" d="M80,65.457c0-3.368-13.431-6.097-30-6.097s-30,2.73-30,6.097V59.36&#xa;&#x9;c0-3.368,13.431-6.098,30-6.098s30,2.73,30,6.098V65.457z M80,65.457"/>
 <path id="el_B_sBN1Haas" d="M63.049,65.94v3.668c0,0.719,0.626,1.279,1.342,1.2C73.692,69.772,80,67.765,80,65.457V59.36&#xa;&#x9;c0,2.33-6.429,4.354-15.878,5.38C63.511,64.807,63.049,65.325,63.049,65.94L63.049,65.94z M63.049,65.94"/>
 <path id="el_I4YP2tOveD" d="M56.707,67.529l-5.94-4.319C50.447,62.978,50,63.206,50,63.601v1.857&#xa;&#x9;c-16.569,0-30-2.73-30-6.097v6.097c0,3.368,13.431,6.097,30,6.097v1.857c0,0.395,0.448,0.623,0.767,0.391l5.94-4.32&#xa;&#x9;C57.369,69,57.369,68.012,56.707,67.529L56.707,67.529z M56.707,67.529"/>
 <g data-animator-group="true" id="el_QeechGQ-Vx_an_TtqUi0TId" data-animator-type="1">
  <g data-animator-group="true" id="el_QeechGQ-Vx_an_hgPbV6bEy" data-animator-type="2">
   <g id="el_QeechGQ-Vx">
    <path id="el_4wjvWwNeOk" d="M50,2c26.467,0,48,21.533,48,48S76.467,98,50,98S2,76.467,2,50S23.533,2,50,2 M50,0C22.386,0,0,22.386,0,50&#xa;&#x9;&#x9;s22.386,50,50,50s50-22.386,50-50S77.614,0,50,0L50,0z"/>
   </g>
  </g>
 </g>
 <g data-animator-group="true" id="el_d96Yos5TgG_an_yu3xQHSN3" data-animator-type="2">
  <g id="el_d96Yos5TgG">
   <path id="el_fvJZrC5TL6" d="M50,2c26.467,0,48,21.533,48,48S76.467,98,50,98S2,76.467,2,50S23.533,2,50,2 M50,0C22.386,0,0,22.386,0,50&#xa;&#x9;&#x9;s22.386,50,50,50s50-22.386,50-50S77.614,0,50,0L50,0z"/>
  </g>
 </g>
 <g data-animator-group="true" id="el_aCoVviGfCp_an_hMLNQtfE7" data-animator-type="2">
  <g id="el_aCoVviGfCp">
   <path id="el_xhP9ITeTnR" d="M50,2c26.467,0,48,21.533,48,48S76.467,98,50,98S2,76.467,2,50S23.533,2,50,2 M50,0C22.386,0,0,22.386,0,50&#xa;&#x9;&#x9;s22.386,50,50,50s50-22.386,50-50S77.614,0,50,0L50,0z"/>
  </g>
 </g>
</svg>
